<svg width="23" height="23" viewBox="0 0 23 23" fill="none" xmlns="http://www.w3.org/2000/svg">
<g clip-path="url(#clip0)">
<path d="M21.0999 12.7H1.3999C0.799902 12.7 0.399902 12.3 0.399902 11.7C0.399902 11.1 0.799902 10.7 1.3999 10.7H21.0999C21.6999 10.7 22.0999 11.1 22.0999 11.7C22.0999 12.3 21.6999 12.7 21.0999 12.7Z" fill="#314259"/>
<path d="M13.5 9.80001C13.2 9.80001 13 9.70001 12.8 9.50001C12.4 9.10001 12.4 8.50001 12.8 8.10001L18.5 2.40001C18.9 2.00001 19.5 2.00001 19.9 2.40001C20.3 2.80001 20.3 3.40001 19.9 3.80001L14.2 9.50001C14 9.70001 13.8 9.80001 13.5 9.80001Z" fill="#314259"/>
<path d="M20.6997 2.6C20.3997 2.6 20.1997 2.5 19.9997 2.3C19.5997 1.9 19.5997 1.3 19.9997 0.9L20.5997 0.3C20.9997 -0.1 21.5997 -0.1 21.9997 0.3C22.3997 0.7 22.3997 1.3 21.9997 1.7L21.3997 2.3C21.1997 2.5 20.9997 2.6 20.6997 2.6Z" fill="#314259"/>
<path d="M14.4999 22.3H7.8999C7.3999 22.3 6.8999 21.9 6.8999 21.3C6.8999 20.7 7.2999 20.3 7.8999 20.3H14.4999C14.9999 20.3 15.4999 20.7 15.4999 21.3C15.4999 21.9 15.0999 22.3 14.4999 22.3Z" fill="#314259"/>
<path d="M11.2 20.2C5 20.2 0 15.1 0 8.89999C0 8.39999 0.4 7.89999 1 7.89999H21.5C22 7.89999 22.5 8.29999 22.5 8.89999C22.5 11.4 21.7 13.7 20.2 15.7C19.9 16.1 19.3 16.2 18.8 15.9C18.4 15.6 18.3 15 18.6 14.5C19.6 13.2 20.2 11.6 20.4 9.89999H2C2.5 14.5 6.4 18.2 11.2 18.2C13.3 18.2 15.4 17.5 17.1 16.1C17.5 15.8 18.1 15.8 18.5 16.2C18.8 16.6 18.8 17.2 18.4 17.6C16.4 19.3 13.8 20.2 11.2 20.2Z" fill="#314259"/>
</g>
<defs>
<clipPath id="clip0">
<rect width="22.5" height="22.3" fill="white"/>
</clipPath>
</defs>
</svg>
