<svg width="30" height="28" viewBox="0 0 30 28" fill="none" xmlns="http://www.w3.org/2000/svg">
<path d="M16.0621 3.40259C15.7804 3.14481 15.3984 3 15 3C14.6016 3 14.2196 3.14481 13.9379 3.40259L3.42172 13.0277C3.14806 13.287 2.99663 13.6344 3.00006 13.9949C3.00348 14.3554 3.16148 14.7003 3.44002 14.9552C3.71856 15.2102 4.09535 15.3548 4.48925 15.3579C4.88315 15.3611 5.26264 15.2225 5.54598 14.972L5.98615 14.5691V23.625C5.98615 23.9897 6.14443 24.3394 6.42617 24.5973C6.70791 24.8551 7.09002 25 7.48846 25H10.4931C10.8915 25 11.2736 24.8551 11.5554 24.5973C11.8371 24.3394 11.9954 23.9897 11.9954 23.625V20.8749C11.9954 20.5103 12.1537 20.1605 12.4354 19.9027C12.7171 19.6448 13.0993 19.4999 13.4977 19.4999H16.5023C16.9007 19.4999 17.2829 19.6448 17.5646 19.9027C17.8463 20.1605 18.0046 20.5103 18.0046 20.8749V23.625C18.0046 23.9897 18.1629 24.3394 18.4446 24.5973C18.7264 24.8551 19.1085 25 19.5069 25H22.5115C22.91 25 23.2921 24.8551 23.5738 24.5973C23.8556 24.3394 24.0138 23.9897 24.0138 23.625V14.5691L24.454 14.972C24.7374 15.2225 25.1168 15.3611 25.5107 15.3579C25.9046 15.3548 26.2814 15.2102 26.56 14.9552C26.8385 14.7003 26.9965 14.3554 26.9999 13.9949C27.0034 13.6344 26.8519 13.287 26.5783 13.0277L16.0621 3.40259Z" fill="#797979"/>
</svg>
