<svg width="30" height="28" viewBox="0 0 30 28" fill="none" xmlns="http://www.w3.org/2000/svg">
<path d="M14.1429 3.17147C11.5779 3.17147 9.21435 4.06514 7.33036 5.55952C7.08294 5.34967 6.77079 5.221 6.42857 5.221C5.64636 5.221 5 5.88341 5 6.68495C5 7.0333 5.12819 7.34717 5.33036 7.59991C3.86945 9.53149 3 11.9592 3 14.5903C3 17.5239 4.08078 20.2001 5.85714 22.2212C5.68413 22.4634 5.57143 22.7617 5.57143 23.0812C5.57143 23.8828 6.21779 24.5452 7 24.5452C7.3867 24.5452 7.74144 24.3756 8 24.1151C9.76071 25.3077 11.875 26 14.1429 26C20.2935 26 25.2857 20.8933 25.2857 14.5903C25.2857 11.8749 24.3596 9.37809 22.8125 7.41694C23.113 6.95365 23.2857 6.40131 23.2857 5.80658C23.2857 4.19647 21.9998 2.87866 20.4286 2.87866C19.5378 2.87866 18.7393 3.29799 18.2143 3.95834C17.8171 3.79827 17.4089 3.65957 16.9911 3.54659C17.0077 2.69298 16.4024 1.98355 15.5714 2.00029C14.7399 2.02517 14.3098 2.64663 14.1429 3.17147ZM14.1428 3.74794C14.2232 4.47318 14.9892 4.91194 15.5714 4.92821C16.1282 4.92821 16.6043 4.58725 16.8393 4.10473C17.1982 4.20191 17.5497 4.31883 17.8928 4.45244C17.6872 4.85602 17.5714 5.3221 17.5714 5.80658C17.5714 7.41672 18.8574 8.73448 20.4286 8.73448C21.2141 8.73448 21.9285 8.40512 22.4464 7.8744C23.8674 9.72044 24.7143 12.0552 24.7143 14.5903C24.7143 20.5768 19.9847 25.4235 14.1428 25.4235C11.9894 25.4235 9.99138 24.7617 8.3214 23.6302C8.38945 23.4604 8.42855 23.2746 8.42855 23.0812C8.42855 22.2796 7.78218 21.6173 6.99997 21.6173C6.73493 21.6173 6.49071 21.6959 6.27676 21.8278C4.59371 19.9093 3.57141 17.3753 3.57141 14.5903C3.57141 12.0973 4.38864 9.79775 5.76784 7.9659C5.9672 8.07507 6.18904 8.14892 6.42856 8.14892C7.21077 8.14892 7.85713 7.48655 7.85713 6.68495C7.85713 6.44076 7.78407 6.21151 7.67856 6.00789C9.46509 4.59042 11.7079 3.74794 14.1428 3.74794ZM24.1429 7.27051C24.1429 8.07214 24.7892 8.73448 25.5714 8.73448C26.3536 8.73448 27 8.07214 27 7.27051C27 6.46894 26.3536 5.80658 25.5714 5.80658C24.6431 5.82677 24.1604 6.65184 24.1429 7.27051ZM14.1428 7.26144C10.2047 7.26144 6.99999 10.5547 6.99999 14.5904C6.99999 18.6261 10.2047 21.9102 14.1428 21.9102C18.081 21.9102 21.2857 18.6261 21.2857 14.5904C21.2857 10.5547 18.081 7.26144 14.1428 7.26144ZM23.8571 23.0813C23.8571 23.8829 24.5035 24.5453 25.2857 24.5453C26.0679 24.5453 26.7143 23.8829 26.7143 23.0813C26.7143 22.2797 26.0679 21.6173 25.2857 21.6173C24.3931 21.6559 23.8747 22.4626 23.8571 23.0813Z" fill="#79CCAA"/>
</svg>
