<svg width="81" height="78" viewBox="0 0 81 78" fill="none" xmlns="http://www.w3.org/2000/svg">
<g clip-path="url(#clip0)">
<g clip-path="url(#clip1)">
<path d="M44.7807 44.7003C43.888 43.8237 43.9354 42.6083 44.8992 41.6618L52.4492 34.2479C56.1439 30.6198 56.3572 25.1505 52.9351 21.7901C49.5129 18.4296 43.9433 18.6391 40.2486 22.2672L35.7508 26.684C34.787 27.6304 33.5493 27.677 32.6565 26.8003C31.7638 25.9237 31.8112 24.7083 32.775 23.7619L37.2729 19.345C42.7346 13.9818 51.089 13.6676 56.1478 18.6352C61.2066 23.6028 60.8866 31.8068 55.4249 37.17L47.875 44.584C46.9112 45.5304 45.5247 45.4309 44.7807 44.7003Z" fill="#994EDF"/>
<path d="M19.8435 54.2852C14.7847 49.3175 15.1047 41.1136 20.5664 35.7503L28.9195 27.5477C29.8833 26.6012 31.121 26.5547 32.0138 27.4313L47.1901 42.3342C48.0828 43.2108 48.0354 44.4262 47.0716 45.3727L38.7184 53.5753C33.2567 58.9386 24.9023 59.2528 19.8435 54.2852ZM30.2889 32.0473L23.5421 38.6725C19.8474 42.3006 19.6341 47.7699 23.0562 51.1303C26.4784 54.4908 32.048 54.2813 35.7427 50.6532L42.4894 44.028L30.2889 32.0473Z" fill="#994EDF"/>
</g>
</g>
<defs>
<clipPath id="clip0">
<rect width="55.5069" height="55.5069" fill="white" transform="matrix(0.713506 0.70065 -0.713506 0.70065 40.4712 0)"/>
</clipPath>
<clipPath id="clip1">
<rect width="25.4407" height="50.8813" fill="white" transform="matrix(0.713506 0.70065 -0.713506 0.70065 47.0718 9.72272)"/>
</clipPath>
</defs>
</svg>
