<svg width="56" height="55" viewBox="0 0 56 55" fill="none" xmlns="http://www.w3.org/2000/svg">
<g clip-path="url(#clip0)">
<path d="M4.66683 53.8541C3.96683 53.8541 3.50016 53.625 3.0335 53.1666C2.10016 52.25 2.10016 50.875 3.0335 49.9583L9.3335 43.7708C10.2668 42.8541 11.6668 42.8541 12.6002 43.7708C13.5335 44.6875 13.5335 46.0625 12.6002 46.9791L6.30016 53.1666C5.8335 53.625 5.36683 53.8541 4.66683 53.8541Z" fill="#F29949"/>
<path d="M37.8001 28.875C37.1001 28.875 36.6334 28.6458 36.1667 28.1875L32.4334 24.5208C31.5001 23.6042 31.5001 22.2292 32.4334 21.3125C33.3667 20.3958 34.7667 20.3958 35.7001 21.3125L39.4334 24.9792C40.3667 25.8958 40.3667 27.2708 39.4334 28.1875C38.9667 28.6458 38.5001 28.875 37.8001 28.875Z" fill="#F29949"/>
<path d="M32.4333 34.1458C31.7333 34.1458 31.2666 33.9166 30.8 33.4583L26.8333 29.7916C25.9 28.875 25.9 27.5 26.8333 26.5833C27.7666 25.6666 29.1666 25.6666 30.1 26.5833L33.8333 30.25C34.7666 31.1666 34.7666 32.5416 33.8333 33.4583C33.6 33.9166 32.9 34.1458 32.4333 34.1458Z" fill="#F29949"/>
<path d="M26.8333 39.6459C26.1333 39.6459 25.6666 39.4167 25.1999 38.9584L21.4666 35.2917C20.5333 34.375 20.5333 33 21.4666 32.0834C22.3999 31.1667 23.7999 31.1667 24.7333 32.0834L28.4666 35.75C29.3999 36.6667 29.3999 38.0417 28.4666 38.9584C27.9999 39.4167 27.5333 39.6459 26.8333 39.6459Z" fill="#F29949"/>
<path d="M52.5001 14.4375C51.8001 14.4375 51.3335 14.2084 50.8668 13.75L43.1668 6.18752C42.2335 5.27085 42.2335 3.89585 43.1668 2.97919C44.1001 2.06252 45.5001 2.06252 46.4335 2.97919L54.1335 10.5417C55.0668 11.4584 55.0668 12.8334 54.1335 13.75C53.6668 14.2084 53.2001 14.4375 52.5001 14.4375Z" fill="#F29949"/>
<path d="M41.0667 18.1042C40.3667 18.1042 39.9001 17.875 39.4334 17.4167C38.5001 16.5 38.5001 15.125 39.4334 14.2084L46.4334 7.33337C47.3667 6.41671 48.7667 6.41671 49.7001 7.33337C50.6334 8.25004 50.6334 9.62504 49.7001 10.5417L42.7001 17.4167C42.2334 17.875 41.5334 18.1042 41.0667 18.1042Z" fill="#F29949"/>
<path d="M18.9001 45.1458C16.8001 45.1458 14.9335 44.4583 13.3001 42.8541C11.9001 41.4791 10.9668 39.4166 10.9668 37.3541C10.9668 35.2916 11.6668 33.4583 13.3001 31.8541L31.2668 14.2083C32.2001 13.2916 33.6001 13.2916 34.5335 14.2083C35.4668 15.125 35.4668 16.5 34.5335 17.4166L16.5668 35.0625C15.4001 36.2083 15.4001 38.2708 16.5668 39.4166C17.7335 40.5625 19.8335 40.5625 21.0001 39.4166L41.5335 19.25L35.4668 13.75C34.5335 12.8333 34.5335 11.4583 35.4668 10.5416C36.4001 9.62496 37.8001 9.62496 38.7335 10.5416L46.4335 18.1041C47.3668 19.0208 47.3668 20.3958 46.4335 21.3125L24.2668 43.0833C22.8668 44.4583 21.0001 45.1458 18.9001 45.1458Z" fill="#F29949"/>
<path d="M47.8335 24.75C47.1335 24.75 46.6668 24.5208 46.2001 24.0625L32.6668 10.7708C31.7335 9.85417 31.7335 8.47917 32.6668 7.5625C33.6001 6.64583 35.0001 6.64583 35.9335 7.5625L49.4668 20.8542C50.4001 21.7708 50.4001 23.1458 49.4668 24.0625C49.0001 24.75 48.3001 24.75 47.8335 24.75Z" fill="#F29949"/>
</g>
<defs>
<clipPath id="clip0">
<rect width="52.5" height="51.5625" fill="white" transform="translate(2.3335 2.29169)"/>
</clipPath>
</defs>
</svg>
