<svg width="24" height="24" viewBox="0 0 24 24" fill="none" xmlns="http://www.w3.org/2000/svg">
<g clip-path="url(#clip0)">
<path d="M19.9 23.5H4C3.4 23.5 3 23.1 3 22.5V20.2C3 19.6 3.4 19.2 4 19.2C4.6 19.2 5 19.6 5 20.2V21.5H18.9V4.90002H15.4C14.8 4.90002 14.4 4.50002 14.4 3.90002C14.4 3.30002 14.8 2.90002 15.4 2.90002H19.9C20.5 2.90002 20.9 3.30002 20.9 3.90002V22.5C20.9 23.1 20.5 23.5 19.9 23.5Z" fill="#79CCAA"/>
<path d="M4 18.7C3.4 18.7 3 18.3 3 17.7V3.90002C3 3.30002 3.4 2.90002 4 2.90002H9.4C10 2.90002 10.4 3.30002 10.4 3.90002C10.4 4.50002 10 4.90002 9.4 4.90002H5V17.7C5 18.2 4.6 18.7 4 18.7Z" fill="#79CCAA"/>
<path d="M14.4999 6.6H9.3999C8.7999 6.6 8.3999 6.2 8.3999 5.6V2C8.3999 1.4 8.7999 1 9.3999 1H14.5999C15.1999 1 15.5999 1.4 15.5999 2V5.6C15.4999 6.1 15.0999 6.6 14.4999 6.6ZM10.3999 4.6H13.5999V3H10.3999V4.6Z" fill="#79CCAA"/>
<path d="M12 13.6C11.4 13.6 11 13.2 11 12.6V8.59998C11 7.99998 11.4 7.59998 12 7.59998C12.6 7.59998 13 7.99998 13 8.59998V12.6C13 13.1 12.5 13.6 12 13.6Z" fill="#79CCAA"/>
<path d="M14 11.6H10C9.4 11.6 9 11.2 9 10.6C9 9.99998 9.4 9.59998 10 9.59998H14C14.6 9.59998 15 9.99998 15 10.6C15 11.2 14.5 11.6 14 11.6Z" fill="#79CCAA"/>
<path d="M16.5998 16.6H7.2998C6.6998 16.6 6.2998 16.2 6.2998 15.6C6.2998 15 6.6998 14.6 7.2998 14.6H16.5998C17.1998 14.6 17.5998 15 17.5998 15.6C17.5998 16.2 17.1998 16.6 16.5998 16.6Z" fill="#79CCAA"/>
<path d="M16.5998 19.9H7.2998C6.6998 19.9 6.2998 19.5 6.2998 18.9C6.2998 18.3 6.6998 17.9 7.2998 17.9H16.5998C17.1998 17.9 17.5998 18.3 17.5998 18.9C17.5998 19.5 17.1998 19.9 16.5998 19.9Z" fill="#79CCAA"/>
</g>
<defs>
<clipPath id="clip0">
<rect width="17.9" height="22.5" fill="white" transform="translate(3 1)"/>
</clipPath>
</defs>
</svg>
